<svg xmlns="http://www.w3.org/2000/svg" viewBox="0 0 61.14 63.09"><defs><style>.cls-1{fill:#ffffff;}</style></defs><g id="レイヤー_2" data-name="レイヤー 2"><g id="レイヤー_1-2" data-name="レイヤー 1"><path class="cls-1" d="M2.28,2.52A8.3,8.3,0,0,1,8.77,0H52.36a8.3,8.3,0,0,1,6.49,2.52,8.08,8.08,0,0,1,2.29,5.59A8.68,8.68,0,0,1,60.63,11a36.67,36.67,0,0,1-1.48,3.47l-20,42.34a12.51,12.51,0,0,1-3.53,4.58,8.23,8.23,0,0,1-10,0A12.51,12.51,0,0,1,22,56.81L2,14.47C1.33,13.11.85,12,.51,11A8.68,8.68,0,0,1,0,8.11,8.12,8.12,0,0,1,2.28,2.52Z"/></g></g></svg>