<svg viewBox="0 0 99.63 99.62" xmlns="http://www.w3.org/2000/svg"><path d="m30.59 95.71a51.15 51.15 0 0 1 -26.68-26.71 47.73 47.73 0 0 1 -3.91-19.19 47.73 47.73 0 0 1 3.91-19.22 51.14 51.14 0 0 1 10.76-15.89 50.62 50.62 0 0 1 15.88-10.79 47.65 47.65 0 0 1 19.21-3.91 47.83 47.83 0 0 1 19.24 3.91 51.13 51.13 0 0 1 26.72 26.68 47.9 47.9 0 0 1 3.91 19.22 47.9 47.9 0 0 1 -3.91 19.19 51.21 51.21 0 0 1 -26.72 26.71 47.73 47.73 0 0 1 -19.22 3.91 47.73 47.73 0 0 1 -19.19-3.91zm64.3-42.71h-90.15v-6.41h90.15zm-28.43 36.59a44.45 44.45 0 0 0 23.13-23.13 42.58 42.58 0 0 0 0-33.3 44.05 44.05 0 0 0 -9.38-13.77 44.5 44.5 0 0 0 -13.8-9.39 41.19 41.19 0 0 0 -16.65-3.4 41.22 41.22 0 0 0 -16.65 3.4 43.93 43.93 0 0 0 -13.75 9.35 44.39 44.39 0 0 0 -9.36 13.81 41.22 41.22 0 0 0 -3.4 16.65 41.22 41.22 0 0 0 3.4 16.65 44.38 44.38 0 0 0 23.16 23.13 42.58 42.58 0 0 0 33.3 0zm-30.91-59.14a56.5 56.5 0 0 1 -12.13-3.57 31.16 31.16 0 0 1 -8.82-5.44l4.93-4.06a30.42 30.42 0 0 0 7.74 4.33 49.15 49.15 0 0 0 10.21 2.68 79 79 0 0 0 12.33.91 79 79 0 0 0 12.33-.91 49 49 0 0 0 10.21-2.68 30.42 30.42 0 0 0 7.74-4.33l4.91 4.06a31.24 31.24 0 0 1 -8.81 5.44 56.76 56.76 0 0 1 -12.14 3.57 78.45 78.45 0 0 1 -14.26 1.24 78.45 78.45 0 0 1 -14.24-1.24zm28.52 39a57.35 57.35 0 0 1 12.14 3.55 31.25 31.25 0 0 1 8.79 5.43l-4.93 4a30.71 30.71 0 0 0 -7.74-4.32 49 49 0 0 0 -10.21-2.69 79 79 0 0 0 -12.33-.9 79 79 0 0 0 -12.33.9 49.14 49.14 0 0 0 -10.21 2.69 30.71 30.71 0 0 0 -7.74 4.32l-4.93-4a31.17 31.17 0 0 1 8.84-5.43 57.08 57.08 0 0 1 12.13-3.56 78.43 78.43 0 0 1 14.26-1.25 78.43 78.43 0 0 1 14.26 1.23zm-23.81 24a30.65 30.65 0 0 1 -7.86-9.86 59.15 59.15 0 0 1 -5.32-14.92 84.85 84.85 0 0 1 -1.93-18.68 85.51 85.51 0 0 1 1.93-18.73 59.68 59.68 0 0 1 5.3-15 30.39 30.39 0 0 1 7.83-9.96 14.85 14.85 0 0 1 19.2 0 30.58 30.58 0 0 1 7.86 9.89 58.9 58.9 0 0 1 5.3 15 86.81 86.81 0 0 1 1.9 18.73 84.85 84.85 0 0 1 -1.93 18.68 59.15 59.15 0 0 1 -5.32 14.92 30.65 30.65 0 0 1 -7.86 9.86 14.71 14.71 0 0 1 -19.1 0zm2.74-81.45a30.09 30.09 0 0 0 -5.81 9 61.5 61.5 0 0 0 -4 13.16 81.16 81.16 0 0 0 -1.47 15.75 79.62 79.62 0 0 0 1.47 15.58 62.45 62.45 0 0 0 4 13.11 30.08 30.08 0 0 0 5.81 9c2.19 2.2 4.46 3.3 6.84 3.3s4.66-1.1 6.84-3.3a29.89 29.89 0 0 0 5.81-9 62.45 62.45 0 0 0 4-13.11 79.62 79.62 0 0 0 1.47-15.58 81.16 81.16 0 0 0 -1.47-15.75 61.5 61.5 0 0 0 -4-13.16 29.9 29.9 0 0 0 -5.81-9q-3.27-3.3-6.84-3.3c-2.41-.01-4.68 1.09-6.84 3.3zm10-8.53v92.53h-6.36v-92.53z" fill="#231815"/></svg>