<svg viewBox="0 0 91.21 100.24" xmlns="http://www.w3.org/2000/svg"><path d="m28 96.66a46.84 46.84 0 0 1 -24.42-24.43 43.69 43.69 0 0 1 -3.58-17.6 43.67 43.67 0 0 1 3.58-17.63 46.76 46.76 0 0 1 24.42-24.39 43.61 43.61 0 0 1 17.56-3.61 43.77 43.77 0 0 1 17.61 3.58 46.75 46.75 0 0 1 24.46 24.42 45 45 0 0 1 0 35.19 46.84 46.84 0 0 1 -24.43 24.47 43.69 43.69 0 0 1 -17.6 3.58 43.64 43.64 0 0 1 -17.6-3.58zm22.7-36.88a7.24 7.24 0 0 0 1-9 7.08 7.08 0 0 0 -3-2.61v-22.17a3 3 0 0 0 -.9-2.19 3 3 0 0 0 -2.23-.9 3.07 3.07 0 0 0 -3.1 3.09v22.15a8 8 0 0 0 -2.95 2.71 6.88 6.88 0 0 0 -1.11 3.82 7 7 0 0 0 2.07 5.07 7.23 7.23 0 0 0 10.22 0zm-9.93-54.86a4.82 4.82 0 0 1 1.41-3.47 4.69 4.69 0 0 1 6.78 0 4.87 4.87 0 0 1 1.38 3.47v6.53h-9.57zm37.61 11.71a5.06 5.06 0 0 1 3.62-1.47 4.47 4.47 0 0 1 3.29 1.32 4.32 4.32 0 0 1 1.32 3.19 5 5 0 0 1 -1.61 3.62l-5 5.06-6.57-6.89z" fill="#231815"/></svg>