<svg viewBox="0 0 99.36 99.36" xmlns="http://www.w3.org/2000/svg"><path d="m30.51 95.46a51.08 51.08 0 0 1 -15.85-10.74 50.17 50.17 0 0 1 -10.76-15.85 47.79 47.79 0 0 1 -3.9-19.19 47.18 47.18 0 0 1 3.21-17.32 51.11 51.11 0 0 1 8.79-14.68 4.28 4.28 0 0 1 3.09-1.78 3.61 3.61 0 0 1 3 1.15 4 4 0 0 1 1.15 2.95 5 5 0 0 1 -1.12 3 40.79 40.79 0 0 0 -7.21 12.22 41.42 41.42 0 0 0 -2.63 14.46 40.81 40.81 0 0 0 3.19 16.14 41.42 41.42 0 0 0 76.37 0 40.81 40.81 0 0 0 3.16-16.14 40.68 40.68 0 0 0 -3.19-16.12 41.5 41.5 0 0 0 -8.81-13.18 41.92 41.92 0 0 0 -13.2-8.89 40.66 40.66 0 0 0 -16.17-3.21l3.37-4.28v19a3.88 3.88 0 0 1 -1 2.68 3.33 3.33 0 0 1 -2.6 1.12 3.29 3.29 0 0 1 -2.56-1.12 3.88 3.88 0 0 1 -1-2.68v-18.91a4.41 4.41 0 0 1 .95-3 3.63 3.63 0 0 1 2.94-1.09 47.61 47.61 0 0 1 19.16 3.9 50.31 50.31 0 0 1 15.83 10.76 51.08 51.08 0 0 1 10.74 15.85 47.62 47.62 0 0 1 3.9 19.17 47.79 47.79 0 0 1 -3.9 19.19 50.34 50.34 0 0 1 -10.76 15.85 51 51 0 0 1 -15.86 10.74 47.57 47.57 0 0 1 -19.16 3.9 47.62 47.62 0 0 1 -19.17-3.9zm22.65-36.46a7.48 7.48 0 0 1 -4.5-.63 9.67 9.67 0 0 1 -3.8-3.31l-18-25.77a2.43 2.43 0 0 1 -.46-2.29 2.26 2.26 0 0 1 3.7-1l25.76 18a9.3 9.3 0 0 1 3.34 3.8 7.54 7.54 0 0 1 .59 4.53 8.25 8.25 0 0 1 -2.37 4.33 7.84 7.84 0 0 1 -4.26 2.34z" fill="#231815"/></svg>