<svg xmlns="http://www.w3.org/2000/svg" viewBox="0 0 61.14 63.09"><defs><style>.cls-1{fill:#231815;}</style></defs><g id="レイヤー_2" data-name="レイヤー 2"><g id="レイヤー_1-2" data-name="レイヤー 1"><path class="cls-1" d="M58.86,60.57a8.34,8.34,0,0,1-6.5,2.52H8.77a8.31,8.31,0,0,1-6.49-2.52A8.14,8.14,0,0,1,0,55a8.58,8.58,0,0,1,.51-2.88A33.28,33.28,0,0,1,2,48.62L22,6.28A12.42,12.42,0,0,1,25.56,1.7a8.23,8.23,0,0,1,10,0,12.42,12.42,0,0,1,3.53,4.58L59.19,48.62c.62,1.35,1.1,2.51,1.44,3.47A8.58,8.58,0,0,1,61.14,55,8.14,8.14,0,0,1,58.86,60.57Z"/></g></g></svg>